<!--?xml version="1.0" standalone="no"?-->
              <svg id="sw-js-blob-svg" viewBox="0 0 100 100" xmlns="http://www.w3.org/2000/svg" version="1.1">
                    <defs> 
                        <linearGradient id="sw-gradient" x1="0" x2="1" y1="1" y2="0">
                            <stop id="stop1" stop-color="rgba(253.933, 153.157, 105.462, 1)" offset="0%"></stop>
                            <stop id="stop2" stop-color="rgba(255, 158.795, 0, 1)" offset="100%"></stop>
                        </linearGradient>
                    </defs>
                <path fill="url(#sw-gradient)" d="M27.5,-33.3C34.1,-27.2,36.9,-17.1,38.9,-6.7C40.9,3.6,42.1,14.3,38.2,23.1C34.4,31.9,25.5,38.9,15.7,41.9C5.9,44.9,-4.9,44.1,-14.6,40.4C-24.3,36.8,-32.8,30.3,-36.8,21.9C-40.8,13.6,-40.3,3.3,-37.6,-5.7C-34.9,-14.7,-30.1,-22.4,-23.4,-28.4C-16.8,-34.5,-8.4,-38.9,1,-40.1C10.4,-41.4,20.9,-39.3,27.5,-33.3Z" width="100%" height="100%" transform="translate(50 50)" stroke-width="0" style="transition: all 0.3s ease 0s;" stroke="url(#sw-gradient)"></path>
              </svg>